<svg width="103" height="20" viewBox="0 0 103 20" fill="none" xmlns="http://www.w3.org/2000/svg">
<g clip-path="url(#clip0_571_345)">
<path d="M5.83594 3.125H6.91406H14.8828C15.3203 3.14062 15.6797 3.30469 15.9609 3.61719C16.2578 3.92969 16.4062 4.30469 16.4062 4.74219C16.3281 5.67969 15.8203 6.1875 14.8828 6.26562H6.63281C6.03906 6.29688 5.54688 6.52344 5.15625 6.94531C4.76562 7.36719 4.47656 7.85156 4.28906 8.39844C4.11719 8.92969 4.03125 9.47656 4.03125 10.0391C4.03125 10.6016 4.11719 11.1562 4.28906 11.7031C4.47656 12.2344 4.76562 12.7109 5.15625 13.1328C5.54688 13.5547 6.03906 13.7812 6.63281 13.8125H14.8828C15.3203 13.8281 15.6797 13.9922 15.9609 14.3047C16.2578 14.6172 16.4062 14.9922 16.4062 15.4297C16.3906 15.8516 16.2344 16.2109 15.9375 16.5078C15.6562 16.7891 15.3047 16.9375 14.8828 16.9531H6.28125H5.83594C4.74219 16.8906 3.83594 16.4766 3.11719 15.7109C2.41406 14.9297 1.90625 14.0469 1.59375 13.0625C1.29688 12.0781 1.14844 11.0703 1.14844 10.0391C1.14844 9.00781 1.30469 8 1.61719 7.01562C1.92969 6.03125 2.4375 5.15625 3.14062 4.39062C3.84375 3.60937 4.74219 3.1875 5.83594 3.125ZM16.3594 9.94531C16.3594 10.3828 16.2031 10.75 15.8906 11.0469C15.5938 11.3594 15.2266 11.5156 14.7891 11.5156H7.71094C7.27344 11.5156 6.89844 11.3672 6.58594 11.0703C6.28906 10.7578 6.14062 10.3828 6.14062 9.94531C6.14062 9.50781 6.28906 9.13281 6.58594 8.82031C6.89844 8.52344 7.27344 8.375 7.71094 8.375H14.7891C15.2266 8.375 15.5938 8.53125 15.8906 8.84375C16.2031 9.14062 16.3594 9.50781 16.3594 9.94531ZM33.1941 4.69531C33.1941 5.13281 33.0378 5.5 32.7253 5.79688C32.4284 6.10938 32.0613 6.26562 31.6238 6.26562H22.2488C21.9519 6.28125 21.7019 6.35156 21.4988 6.47656C21.3113 6.58594 21.1706 6.71875 21.0769 6.875C20.9831 7.01562 20.9363 7.16406 20.9363 7.32031C20.9363 7.47656 20.9831 7.63281 21.0769 7.78906C21.1706 7.92969 21.3113 8.0625 21.4988 8.1875C21.7019 8.29688 21.9519 8.35938 22.2488 8.375H28.905C29.9988 8.40625 30.8972 8.66406 31.6003 9.14844C32.3191 9.61719 32.8269 10.1641 33.1238 10.7891C33.4363 11.3984 33.5925 12.0234 33.5925 12.6641C33.5925 13.2891 33.4363 13.9141 33.1238 14.5391C32.8113 15.1484 32.3034 15.6953 31.6003 16.1797C30.8972 16.6484 29.9988 16.8828 28.905 16.8828H28.7644C28.6706 16.8984 28.5769 16.9062 28.4831 16.9062H19.6238C19.1863 16.9062 18.8113 16.7578 18.4988 16.4609C18.2019 16.1484 18.0534 15.7734 18.0534 15.3359C18.0534 14.8984 18.2097 14.5312 18.5222 14.2344C18.8191 13.9219 19.1863 13.7656 19.6238 13.7656H29.0456C29.3425 13.7812 29.5847 13.7266 29.7722 13.6016C29.9753 13.4766 30.1238 13.3359 30.2175 13.1797C30.3113 13.0078 30.3581 12.8359 30.3581 12.6641C30.3581 12.5547 30.3113 12.4062 30.2175 12.2188C30.1238 12.0156 29.9753 11.8516 29.7722 11.7266C29.5847 11.6016 29.3425 11.5312 29.0456 11.5156H22.3894C21.2956 11.4844 20.3894 11.2344 19.6706 10.7656C18.9675 10.2969 18.4597 9.76562 18.1472 9.17188C17.8503 8.5625 17.7019 7.94531 17.7019 7.32031C17.7019 6.71094 17.8581 6.10938 18.1706 5.51562C18.4831 4.90625 18.9909 4.36719 19.6941 3.89844C20.3972 3.42969 21.2956 3.17969 22.3894 3.14844H22.53C22.6238 3.13281 22.7175 3.125 22.8113 3.125H31.6238C32.0613 3.125 32.4284 3.28125 32.7253 3.59375C33.0378 3.89062 33.1941 4.25781 33.1941 4.69531ZM45.6694 3.125C46.7631 3.1875 47.6616 3.60937 48.3647 4.39062C49.0678 5.15625 49.5756 6.03125 49.8881 7.01562C50.2006 8 50.3569 9.00781 50.3569 10.0391C50.3569 11.0703 50.2006 12.0781 49.8881 13.0625C49.5913 14.0469 49.0834 14.9297 48.3647 15.7109C47.6616 16.4766 46.7631 16.8906 45.6694 16.9531H37.0444C36.6225 16.9375 36.2631 16.7891 35.9663 16.5078C35.685 16.2109 35.5366 15.8516 35.5209 15.4297V9.61719C35.5366 9.17969 35.7006 8.82031 36.0131 8.53906C36.3256 8.24219 36.7006 8.09375 37.1381 8.09375C37.56 8.10938 37.9194 8.26562 38.2163 8.5625C38.5131 8.84375 38.6694 9.19531 38.685 9.61719V13.1797C38.685 13.6016 38.9038 13.8125 39.3413 13.8125H44.8725C45.4663 13.7812 45.9584 13.5547 46.3491 13.1328C46.7397 12.7109 47.0209 12.2344 47.1928 11.7031C47.3803 11.1562 47.4741 10.6016 47.4741 10.0391C47.4741 9.47656 47.3803 8.92969 47.1928 8.39844C47.0209 7.85156 46.7397 7.36719 46.3491 6.94531C45.9584 6.52344 45.4663 6.29688 44.8725 6.26562H37.0444C36.1069 6.1875 35.5991 5.67969 35.5209 4.74219C35.5209 4.30469 35.6616 3.92969 35.9428 3.61719C36.2397 3.30469 36.6069 3.14062 37.0444 3.125H45.6694ZM64.7775 3.125C65.5744 3.14062 66.2853 3.39063 66.9103 3.875C67.5353 4.35938 68.0353 4.9375 68.4103 5.60938C68.8009 6.28125 69.09 6.99219 69.2775 7.74219C69.465 8.49219 69.5588 9.25781 69.5588 10.0391C69.5588 11.0703 69.3947 12.0859 69.0666 13.0859C68.7541 14.0703 68.2306 14.9453 67.4963 15.7109C66.7775 16.4766 65.8713 16.8906 64.7775 16.9531H56.5978C55.5041 16.9062 54.59 16.5 53.8556 15.7344C53.1213 14.9688 52.5978 14.0859 52.2853 13.0859C51.9884 12.0859 51.84 11.0703 51.84 10.0391C51.84 9.00781 51.9963 8 52.3088 7.01562C52.6213 6.01562 53.1369 5.13281 53.8556 4.36719C54.59 3.58594 55.5041 3.17188 56.5978 3.125H57.0431H64.3322H64.7775ZM63.9806 13.8125C64.5744 13.7812 65.0666 13.5625 65.4572 13.1562C65.8634 12.7344 66.1525 12.25 66.3244 11.7031C66.4963 11.1562 66.5822 10.6016 66.5822 10.0391C66.5822 9.47656 66.4884 8.92969 66.3009 8.39844C66.1291 7.85156 65.8478 7.36719 65.4572 6.94531C65.0666 6.52344 64.5744 6.29688 63.9806 6.26562H57.3244C56.7306 6.29688 56.2384 6.52344 55.8478 6.94531C55.4572 7.36719 55.1681 7.85156 54.9806 8.39844C54.8088 8.92969 54.7228 9.47656 54.7228 10.0391C54.7228 10.6016 54.8088 11.1562 54.9806 11.7031C55.1525 12.25 55.4338 12.7344 55.8244 13.1562C56.2306 13.5625 56.7306 13.7812 57.3244 13.8125H63.9806ZM76.7372 6.26562C76.1434 6.29688 75.6434 6.52344 75.2372 6.94531C74.8466 7.36719 74.5653 7.85156 74.3934 8.39844C74.2216 8.92969 74.1356 9.47656 74.1356 10.0391C74.1356 10.6016 74.2138 11.1562 74.37 11.7031C74.5419 12.25 74.8309 12.7344 75.2372 13.1562C75.6434 13.5625 76.1434 13.7812 76.7372 13.8125H84.4716C85.4559 13.9062 85.995 14.4453 86.0888 15.4297C86.0731 15.8672 85.9091 16.2344 85.5966 16.5312C85.2841 16.8125 84.9091 16.9531 84.4716 16.9531H76.995H75.9169C74.8231 16.8906 73.9247 16.4766 73.2216 15.7109C72.5184 14.9297 72.0106 14.0469 71.6981 13.0625C71.4013 12.0781 71.2528 11.0703 71.2528 10.0391C71.2528 9.27344 71.3388 8.51562 71.5106 7.76562C71.6825 7.01562 71.9481 6.30469 72.3075 5.63281C72.6825 4.94531 73.1747 4.35938 73.7841 3.875C74.4091 3.39063 75.12 3.14062 75.9169 3.125H76.3622H84.4716C85.4559 3.21875 85.995 3.75781 86.0888 4.74219C86.0888 5.17969 85.9247 5.54688 85.5966 5.84375C85.2841 6.125 84.9091 6.26562 84.4716 6.26562H76.7372ZM95.0016 17.4922C94.1891 17.4922 93.3844 17.3984 92.5875 17.2109C91.8063 17.0234 91.0563 16.75 90.3375 16.3906C89.6188 16.0156 88.9859 15.5234 88.4391 14.9141C87.8922 14.3047 87.5953 13.5781 87.5484 12.7344V11.75V4.27344C87.5484 3.83594 87.7047 3.47656 88.0172 3.19531C88.3453 2.89844 88.7281 2.75 89.1656 2.75C90.1031 2.82813 90.6109 3.33594 90.6891 4.27344V12.0078C90.7203 12.4922 90.9 12.8984 91.2281 13.2266C91.5719 13.5391 91.9469 13.7891 92.3531 13.9766C92.775 14.1641 93.2047 14.3047 93.6422 14.3984C94.0953 14.4922 94.5484 14.5391 95.0016 14.5391C95.4547 14.5391 95.9 14.4922 96.3375 14.3984C96.7906 14.3047 97.2203 14.1641 97.6266 13.9766C98.0484 13.7891 98.4234 13.5391 98.7516 13.2266C99.0953 12.8984 99.2828 12.4922 99.3141 12.0078V4.27344C99.3141 3.83594 99.4703 3.47656 99.7828 3.19531C100.111 2.89844 100.494 2.75 100.931 2.75C101.869 2.82813 102.384 3.33594 102.478 4.27344V11.75V12.7344C102.431 13.5781 102.127 14.3047 101.564 14.9141C101.017 15.5234 100.384 16.0156 99.6656 16.3906C98.9469 16.75 98.1891 17.0234 97.3922 17.2109C96.6109 17.3984 95.8141 17.4922 95.0016 17.4922Z" fill="black"/>
<path d="M39.78 10.86C39.78 10.37 39.9433 9.96167 40.27 9.635C40.62 9.285 41.04 9.11 41.53 9.11C42.02 9.11 42.4283 9.285 42.755 9.635C43.105 9.96167 43.28 10.37 43.28 10.86C43.28 11.35 43.105 11.7583 42.755 12.085C42.4283 12.435 42.02 12.61 41.53 12.61C41.04 12.61 40.62 12.435 40.27 12.085C39.9433 11.7583 39.78 11.35 39.78 10.86Z" fill="black"/>
</g>
<defs>
<clipPath id="clip0_571_345">
<rect width="103" height="20" fill="white"/>
</clipPath>
</defs>
</svg>
