<svg width="100" height="100" viewBox="0 0 100 100" fill="none" xmlns="http://www.w3.org/2000/svg">
<g clip-path="url(#clip0_577_345)">
<rect width="100" height="100" rx="12" fill="url(#paint0_linear_577_345)"/>
<path d="M63.5938 23.5C67.9688 23.75 71.5625 25.4375 74.375 28.5625C77.1875 31.625 79.2188 35.125 80.4688 39.0625C81.7188 43 82.3438 47.0312 82.3438 51.1562C82.3438 55.2812 81.7188 59.3125 80.4688 63.25C79.2812 67.1875 77.25 70.7188 74.375 73.8438C71.5625 76.9062 67.9688 78.5625 63.5938 78.8125H29.0938C27.4062 78.75 25.9688 78.1562 24.7812 77.0312C23.6562 75.8438 23.0625 74.4062 23 72.7188V49.4688C23.0625 47.7188 23.7188 46.2812 24.9688 45.1562C26.2188 43.9688 27.7188 43.375 29.4688 43.375C31.1562 43.4375 32.5938 44.0625 33.7812 45.25C34.9688 46.375 35.5938 47.7812 35.6562 49.4688V63.7188C35.6562 65.4062 36.5312 66.25 38.2812 66.25H60.4062C62.7812 66.125 64.75 65.2188 66.3125 63.5312C67.875 61.8438 69 59.9375 69.6875 57.8125C70.4375 55.625 70.8125 53.4062 70.8125 51.1562C70.8125 48.9062 70.4375 46.7188 69.6875 44.5938C69 42.4062 67.875 40.4688 66.3125 38.7812C64.75 37.0938 62.7812 36.1875 60.4062 36.0625H29.0938C25.3438 35.75 23.3125 33.7188 23 29.9688C23 28.2188 23.5625 26.7188 24.6875 25.4688C25.875 24.2187 27.3438 23.5625 29.0938 23.5H63.5938Z" fill="white"/>
</g>
<defs>
<linearGradient id="paint0_linear_577_345" x1="50" y1="0" x2="50" y2="100" gradientUnits="userSpaceOnUse">
<stop stop-color="#5D50D6"/>
<stop offset="1" stop-color="#803BB6"/>
</linearGradient>
<clipPath id="clip0_577_345">
<rect width="100" height="100" rx="12" fill="white"/>
</clipPath>
</defs>
</svg>
